<svg width="91" height="78" viewBox="0 0 91 78" fill="none" xmlns="http://www.w3.org/2000/svg">
<path d="M44.3683 77.8703C67.9548 77.8703 87.0755 60.5432 87.0755 39.1691C87.0755 17.795 67.9548 0.46785 44.3683 0.46785C20.7818 0.46785 1.66116 17.795 1.66116 39.1691C1.66116 60.5432 20.7818 77.8703 44.3683 77.8703Z" fill="#FEFEFE"/>
<path fill-rule="evenodd" clip-rule="evenodd" d="M4.36618 19.559C-4.53952 38.2884 0.178463 53.7516 18.5205 65.9482C6.00271 54.8216 1.77569 41.704 5.83906 26.595C12.2008 11.4141 23.4641 2.63276 39.6284 0.2509C24.7072 0.451215 12.9529 6.88737 4.36618 19.559Z" fill="#F58634"/>
<path fill-rule="evenodd" clip-rule="evenodd" d="M24.1342 4.4594C48.66 -5.12056 68.1 0.73468 82.4531 22.0251C75.1571 10.4908 63.5392 3.86375 47.5998 2.14406C18.8747 4.29121 4.66628 18.2271 4.97431 43.9513C0.650152 28.6937 7.03642 15.5296 24.1342 4.4594Z" fill="#EC268F"/>
<path fill-rule="evenodd" clip-rule="evenodd" d="M4.10916 50.3803C7.1823 65.9723 20.3815 74.9446 43.7077 77.2973C25.5327 72.7328 12.3334 63.7602 4.10916 50.3803Z" fill="#00AFEF"/>
<path fill-rule="evenodd" clip-rule="evenodd" d="M88.531 31.1183C81.989 69.1388 60.3353 82.0928 23.5696 69.9805C54.5137 89.4194 99.3812 68.3047 88.531 31.1183Z" fill="#FFF212"/>
<path fill-rule="evenodd" clip-rule="evenodd" d="M88.5309 31.0015C82.3832 9.98961 67.7658 -0.319052 44.6782 0.0755309C68.829 1.56655 82.8802 14.9041 86.8321 40.0879C87.9644 34.0301 88.5309 31.0015 88.5309 31.0015Z" fill="#00AFEF"/>
<path fill-rule="evenodd" clip-rule="evenodd" d="M22.4104 32.7208C22.3533 45.4076 22.325 51.7507 22.325 51.7507C20.2489 53.2331 18.4003 53.2331 16.7781 51.7507C16.7781 39.0644 16.7781 32.7208 16.7781 32.7208C19.4302 18.6194 41.483 18.3635 42.8909 31.7824C43.2322 45.2654 43.403 52.007 43.403 52.007C41.599 53.0883 39.7501 53.1446 37.8558 52.1774C38.0833 39.7182 38.1971 33.4888 38.1971 33.4888C37.1347 28.8517 34.1761 26.6331 29.3228 26.8331C25.2979 27.4741 22.9939 29.4368 22.4104 32.7208Z" fill="#2C4563"/>
<path fill-rule="evenodd" clip-rule="evenodd" d="M52.4482 44.5825C51.5717 45.2292 50.3483 44.1199 48.779 41.2546C60.7257 33.4608 66.6993 29.5638 66.6993 29.5638C62.6215 26.7174 58.4969 26.1773 54.3255 27.9424C48.6358 31.5518 46.6164 35.6477 48.2669 40.2304C52.39 52.6752 70.7846 51.1354 71.5635 37.2438C74.408 37.0729 75.8302 36.9879 75.8302 36.9879C77.3054 40.8003 75.656 44.982 70.8805 49.5322C47.8806 66.7853 27.961 25.0556 59.1047 22.0542C66.107 21.8804 71.2838 24.7248 74.6355 30.5877C59.844 39.9174 52.4482 44.5825 52.4482 44.5825Z" fill="#2C4563"/>
</svg>
